<?xml version="1.0" encoding="utf-8"?>
<!-- Generator: Adobe Illustrator 24.1.3, SVG Export Plug-In . SVG Version: 6.00 Build 0)  -->
<svg version="1.1" id="Layer_1" xmlns="http://www.w3.org/2000/svg" xmlns:xlink="http://www.w3.org/1999/xlink" x="0px" y="0px"
	 height="100px" viewBox="0 0 310.3831787 100" style="enable-background:new 0 0 310.3831787 100;" xml:space="preserve">
<style type="text/css">
	.st0{fill:#1A9AFA;}
	.st1{fill:#FFE600;}
	.st2{fill:#2E2E38;}
</style>
<g>
	<g>
		<path class="st0" d="M117.4296036,75.8527145c0-0.9421158-0.1390991-1.7807617-0.4193268-2.5152435
			c-0.2795639-0.73452-0.6749115-1.353241-1.1860504-1.8568344c-0.5111389-0.5029221-1.129837-0.8818054-1.8568115-1.1373672
			c-0.7269745-0.2562714-1.5375214-0.384407-2.4309998-0.384407h-9.2238007v11.8349991h9.2238007
			c1.9794693,0,3.4567108-0.5275955,4.4317169-1.5813675C116.9424438,79.1580124,117.4296036,77.705452,117.4296036,75.8527145
			 M122.6752853,75.8527145c0,1.7725677-0.2788696,3.3299713-0.8386688,4.6708374
			c-0.5583954,1.341568-1.3408813,2.4638824-2.3467102,3.366272c-1.0065155,0.9023819-2.2042084,1.5854645-3.5944214,2.0479889
			c-1.3888474,0.4638596-2.9215775,0.6947479-4.5988846,0.6947479h-8.9839859v12.8161697h-5.054512v-34.35186h14.3742523
			c1.5800095,0,3.045578,0.2275009,4.3960571,0.682457c1.3484344,0.4556198,2.5152664,1.129837,3.4971237,2.0239868
			c0.9818649,0.8948517,1.7526855,2.0164566,2.3110809,3.366272
			C122.3964157,72.5193558,122.6752853,74.0795212,122.6752853,75.8527145"/>
		<path class="st0" d="M140.33255,88.453392c-0.4789429-0.2240753-0.9099121-0.3953629-1.2942963-0.5152664
			c-0.3823395-0.1198959-0.7811127-0.2226868-1.1977081-0.3110504c-0.414505-0.0876999-0.9140015-0.159668-1.4963989-0.2158356
			c-0.5830994-0.0554886-1.2182465-0.0835953-1.9047852-0.0835953c-1.6293335,0-2.9188385,0.3439713-3.8677979,1.029808
			c-0.9517059,0.686554-1.4251709,1.6218109-1.4251709,2.8030472c0,0.7660522,0.1343079,1.4169312,0.4069977,1.9520569
			c0.2706451,0.5351257,0.6145935,0.9708862,1.0298309,1.305275c0.414505,0.3350601,0.9064789,0.5878601,1.4724274,0.755722
			c0.5673218,0.1671982,1.2490692,0.2507935,2.0486603,0.2507935c0.6707764,0,1.3175812-0.095932,1.9403992-0.2877655
			c0.6235199-0.1911926,1.2052307-0.4426117,1.7485657-0.7543793c0.5426788-0.3110962,1.0298309-0.6618805,1.4614716-1.0538177
			c0.4323578-0.3912201,0.7907104-0.7865829,1.0778046-1.1860046V88.453392z M140.33255,99.449028v-2.5392456
			c-0.6543579,0.6077652-1.1976929,1.0503845-1.629364,1.3292313c-0.4309692,0.2795639-0.8777161,0.5433655-1.341568,0.7913971
			c-0.4624939,0.2466507-1.0496826,0.4700089-1.7602081,0.6700745c-0.7105255,0.1994019-1.4888611,0.2994308-2.3350677,0.2994308
			c-1.0387115,0-2.0890961-0.1555252-3.1504211-0.4672928c-1.063385-0.3110504-2.0205841-0.8139801-2.8743057-1.508728
			c-0.8550873-0.6954575-1.553978-1.5930328-2.0973129-2.6954803c-0.5426559-1.101738-0.8132935-2.4433136-0.8132935-4.0246811
			c0-1.4368439,0.2583008-2.6790543,0.7776566-3.7246246c0.518692-1.0462494,1.2374268-1.9123306,2.1555557-2.5988388
			c0.9195099-0.6872635,2.0055084-1.1942902,3.2586823-1.5217743c1.2538605-0.3268204,2.6070862-0.4913025,4.0603333-0.4913025
			c1.3573456,0,2.4988403,0.0925064,3.4251862,0.2761383c0.9263611,0.1829605,1.7012787,0.4186554,2.3241272,0.7064133v-1.9170914
			c0-1.4046402-0.4145508-2.4824142-1.2449799-3.2333679c-0.8304291-0.7502441-2.0377045-1.1257019-3.6183929-1.1257019
			c-1.3258209,0-2.5228119,0.1274185-3.5937347,0.3829803c-1.0688629,0.2555618-2.1075897,0.66259-3.1134338,1.2223511
			l-1.9643936-3.8095627c1.2292099-0.7666779,2.5515823-1.3450012,3.9637375-1.7368927
			c1.4148712-0.3912277,3.0312042-0.5871887,4.8517151-0.5871887c1.4367981,0,2.7509613,0.1760559,3.9411011,0.5275497
			c1.1894684,0.3514938,2.2076416,0.8859482,3.0545197,1.6053772c0.8461761,0.7180786,1.5053101,1.6204224,1.9760284,2.7064362
			c0.4713898,1.0866852,0.7064209,2.3556213,0.7064209,3.8088913V99.449028H140.33255z"/>
		<path class="st0" d="M164.1717072,79.039032c-0.5433655-0.3035278-1.1147919-0.53508-1.7129364-0.6947479
			c-0.5995331-0.1596222-1.3134918-0.2391205-2.1439209-0.2391205c-1.6128845,0-2.8599091,0.5543137-3.7376099,1.6635818
			c-0.8784027,1.1113586-1.3169098,2.7674179-1.3169098,4.970932v14.7093048h-5.055191V73.6967468h5.055191v2.4433517
			c0.2870941-0.4309921,0.6378937-0.8263168,1.0538025-1.1860504c0.4158936-0.3583527,0.8742828-0.6742172,1.3771973-0.9462051
			c0.5028992-0.2713318,1.0421448-0.4823914,1.617691-0.6351624c0.5741882-0.1507568,1.1812439-0.2274933,1.8211823-0.2274933
			c1.0366669,0,1.8993073,0.095932,2.5865479,0.287796c0.6858368,0.1918335,1.2853699,0.4549561,1.7965088,0.7906876
			L164.1717072,79.039032z"/>
		<path class="st0" d="M182.8774567,98.8020325c-0.6228333,0.3514938-1.3539124,0.6399689-2.1911926,0.8626556
			c-0.8386536,0.2233582-1.7608795,0.3350601-2.7667236,0.3350601c-0.8790741,0-1.650589-0.1240387-2.3124695-0.3706894
			c-0.6625519-0.2473602-1.2661896-0.6392517-1.8088379-1.1743774c-0.5433502-0.5351257-0.9578857-1.237442-1.2449799-2.1075821
			c-0.2877502-0.8708572-0.4316559-1.9287643-0.4316559-3.174408V78.296196h-3.6656647v-4.5995789h3.6656647v-7.3546524
			l4.9579315-2.6591415v10.0137939h6.3734741v4.5995789h-6.3734741v13.9898758c0,0.6070557,0.052063,1.1058426,0.1569061,1.4977722
			c0.1034546,0.3912201,0.2630768,0.7064209,0.4789124,0.9462128c0.2151642,0.2391205,0.4905853,0.4063187,0.8263397,0.5022507
			c0.3350372,0.0966034,0.7344971,0.144577,1.1976776,0.144577c0.655014,0,1.321701-0.1034622,2.0007019-0.3117676
			c0.6776276-0.2075958,1.2490692-0.4467163,1.7129364-0.7187576L182.8774567,98.8020325z"/>
		<path class="st0" d="M203.8020172,99.449028V84.8843307c0-2.3796158-0.4227448-4.1521454-1.2703094-5.3189926
			c-0.8461914-1.1654739-2.1877747-1.7485657-4.0247192-1.7485657c-0.7817841,0-1.5046234,0.1281357-2.1685638,0.3836975
			c-0.6618805,0.2555542-1.2292023,0.678978-1.6999207,1.2695999c-0.4713898,0.5906219-0.8263092,1.285408-1.066803,2.0843353
			c-0.2384491,0.7982101-0.3583527,1.7409897-0.3583527,2.8270035V99.449028h-5.0545197V66.3421707l5.0545197-2.6591415V76.139473
			c0.3199615-0.4618149,0.7105255-0.881813,1.1736908-1.2565994c0.4638672-0.3754959,0.9743347-0.6906967,1.5341187-0.9462509
			c0.557724-0.2548904,1.1572418-0.4515305,1.7958374-0.5871887c0.6385803-0.1356659,1.2936096-0.2041626,1.964386-0.2041626
			c1.5484772,0,2.8900604,0.2480316,4.0240173,0.7427139c1.1339569,0.4953918,2.0884094,1.2257767,2.8633423,2.1925583
			c0.7742615,0.9667892,1.3491058,2.1959915,1.7252808,3.6882858c0.3747864,1.4936752,0.5625153,3.1353455,0.5625153,4.9236374
			V99.449028H203.8020172z"/>
		<path class="st0" d="M229.6446838,84.1889572c-0.0644073-0.8783798-0.2199402-1.7088318-0.4665833-2.4906082
			c-0.248703-0.7831573-0.6145935-1.4697113-1.1024475-2.0603333c-0.4878387-0.5906143-1.1017456-1.057869-1.8437958-1.4018326
			c-0.7434235-0.3432999-1.6334686-0.5152588-2.6714783-0.5152588c-0.8948517,0-1.6766357,0.1486664-2.3488007,0.4432831
			c-0.6694031,0.2960052-1.2449646,0.7146606-1.7238922,1.257309c-0.4789124,0.5433655-0.8742828,1.2107239-1.1860352,2.0006943
			c-0.3110657,0.7913971-0.523468,1.7129288-0.6351624,2.7667465H229.6446838z M234.747879,86.0580826
			c0,0.4631958-0.0164642,0.8941879-0.0486755,1.2936096c-0.032196,0.3994598-0.0643921,0.73452-0.0952148,1.0051727h-17.0327301
			c0.1439056,1.246315,0.4152374,2.3124619,0.8146973,3.1990814c0.3980713,0.88591,0.88591,1.6169968,1.460083,2.1918488
			c0.5762329,0.574852,1.2271576,0.9983215,1.9541168,1.2696457c0.7262726,0.2719955,1.4806671,0.4069901,2.2631073,0.4069901
			c0.5584106,0,1.0860138-0.0473022,1.5807037-0.1439056c0.4953918-0.095932,0.9702148-0.2397919,1.4251709-0.4309464
			c0.4556122-0.1912003,0.8585052-0.3864594,1.2107086-0.586525c0.3501129-0.2000656,0.8057404-0.4994888,1.3648376-0.8989487
			l2.9949036,3.2347031c-0.6392517,0.6070557-1.2497406,1.097641-1.8328247,1.4724274
			c-0.5837555,0.3761673-1.2134399,0.7112274-1.8931274,1.0065155c-0.6790314,0.2953339-1.4491425,0.5234985-2.3110809,0.682457
			C225.7405701,99.9198303,224.7888794,100,223.7515411,100c-1.1182251,0-2.1644592-0.1555252-3.1381073-0.4672928
			c-0.9743195-0.311058-1.8369751-0.7187576-2.5865479-1.2216339c-0.7516174-0.5036316-1.4265137-1.077774-2.0246582-1.7252731
			c-0.5995178-0.6461105-1.1695862-1.4765625-1.7129211-2.4913177c-0.5433502-1.0133743-0.9578857-2.147316-1.2456512-3.4011917
			c-0.2877808-1.2531662-0.4316559-2.6228409-0.4316559-4.1082764c0-2.1713181,0.2754211-4.0966568,0.8269958-5.7732849
			c0.5508728-1.67659,1.3209991-3.0819016,2.3110809-4.2172165c0.9914398-1.1332703,2.1802063-1.9911194,3.5690765-2.5742111
			c1.3908844-0.5830917,2.9147034-0.8749542,4.5762482-0.8749542c1.8369598,0,3.4340973,0.3480682,4.7914429,1.0428162
			c1.3572998,0.6940842,2.4823608,1.6286697,3.3778992,2.8023758c0.8948059,1.1736679,1.5642242,2.544014,2.0123596,4.1089478
			C234.5231476,82.6644669,234.747879,84.3177643,234.747879,86.0580826"/>
		<path class="st0" d="M254.1455078,99.449028V84.8843307c0-2.3316498-0.4145508-4.0918427-1.2449646-5.2833633
			c-0.8297424-1.1887665-2.1802368-1.7841949-4.0486908-1.7841949c-0.8139801,0-1.5649261,0.1445694-2.2521515,0.4316635
			c-0.686554,0.2877579-1.2614136,0.7344742-1.7246094,1.3415756c-0.4638519,0.6063385-0.7989197,1.3209991-1.0058441,2.1438828
			c-0.208252,0.8228836-0.3117218,1.7047348-0.3117218,2.6475143V99.449028h-5.0545349V73.6968231h5.0545349v2.4426498
			c0.3199615-0.4618149,0.7111816-0.881813,1.1736755-1.2565994c0.4631958-0.3754959,0.9743042-0.6906967,1.5341034-0.9462509
			c0.5577545-0.2548904,1.1572723-0.4515305,1.7958679-0.5871887c0.6392517-0.1356659,1.2942657-0.2041626,1.964386-0.2041626
			c1.5491638,0,2.8948364,0.2527924,4.0363464,0.7550507c1.1428528,0.5029221,2.0918121,1.2257767,2.8516998,2.1678848
			c0.7578125,0.9421158,1.3285217,2.1322632,1.7122192,3.5697708c0.3830261,1.4374619,0.5755615,3.1222916,0.5755615,5.0544891
			V99.449028H254.1455078z"/>
		<path class="st0" d="M280.8279114,86.5847168c0-1.3093719-0.152771-2.4953766-0.4556274-3.5574265
			c-0.3035278-1.0613022-0.7386169-1.9677811-1.3059387-2.7187347c-0.5666809-0.7502899-1.2573242-1.3299484-2.0719604-1.7369385
			c-0.8139954-0.4069901-1.7335205-0.6104813-2.7550964-0.6104813c-0.9585876,0-1.8170776,0.2034912-2.5755615,0.6104813
			c-0.757782,0.4069901-1.4052734,0.9818802-1.9397278,1.7246017c-0.5351257,0.7427139-0.946228,1.6334305-1.2339783,2.6714783
			c-0.2878113,1.0380478-0.4303284,2.1959915-0.4303284,3.4731216c0,1.4217453,0.1555786,2.6749496,0.4666138,3.7609253
			c0.3110657,1.0866852,0.7502441,1.9965897,1.3175964,2.731781c0.5666504,0.73452,1.245636,1.2929382,2.0363464,1.6766357
			c0.7906799,0.3823166,1.6642456,0.574852,2.6228638,0.574852c0.9578247,0,1.8239136-0.2274551,2.5988159-0.6824112
			c0.7742615-0.4556656,1.4382019-1.070961,1.9890747-1.8451691c0.5501709-0.7749557,0.9777527-1.6848679,1.2812805-2.7304459
			C280.6751404,88.8807449,280.8279114,87.767334,280.8279114,86.5847168 M285.929718,86.4408188
			c0,2.1404953-0.2953186,4.0487289-0.8859253,5.7253189c-0.5913086,1.6772995-1.4059753,3.0983734-2.4440308,4.2645111
			c-1.0379944,1.1661835-2.2679138,2.0520935-3.6889648,2.6591873c-1.421051,0.6070557-2.9544678,0.909874-4.5989075,0.909874
			c-1.6293335,0-3.1353455-0.319252-4.5166321-0.95784c-1.3806458-0.638588-2.5783081-1.5450668-3.5923462-2.7194443
			c-1.0147705-1.1737137-1.8102417-2.5865479-2.3844299-4.2398911c-0.5741577-1.6532974-0.8619385-3.4854507-0.8619385-5.497818
			c0-2.1075821,0.2946472-3.9924774,0.8859253-5.6533432c0.5913086-1.6608658,1.401886-3.0702744,2.4317017-4.2282181
			c1.0298157-1.1572342,2.2438965-2.0397491,3.6416931-2.6468048c1.3970642-0.6070938,2.910614-0.9106216,4.5399475-0.9106216
			c1.6444092,0,3.1648254,0.3158646,4.562561,0.9469223c1.3984375,0.6303482,2.6077881,1.5244904,3.6300659,2.6824341
			c1.0215759,1.1579437,1.8239136,2.5550156,2.4070129,4.1925888
			C285.6378174,82.6038666,285.929718,84.4284973,285.929718,86.4408188"/>
		<path class="st0" d="M305.3287048,99.449028V84.8843307c0-2.3316498-0.4145813-4.0918427-1.2463684-5.2833633
			c-0.8297424-1.1887665-2.178833-1.7841949-4.0486755-1.7841949c-0.813324,0-1.5649414,0.1445694-2.2514954,0.4316635
			c-0.6872253,0.2877579-1.2606812,0.7344742-1.7245483,1.3415756c-0.4631958,0.6063385-0.7982483,1.3209991-1.0058594,2.1438828
			c-0.2075806,0.8228836-0.3110352,1.7047348-0.3110352,2.6475143V99.449028h-5.0559387V73.6968231h5.0559387v2.4426498
			c0.318573-0.4618149,0.7097778-0.881813,1.173645-1.2565994c0.4631958-0.3754959,0.9743347-0.6906967,1.5327454-0.9462509
			c0.5584106-0.2548904,1.1579285-0.4515305,1.7972412-0.5871887c0.6378784-0.1356659,1.2928772-0.2041626,1.9630127-0.2041626
			c1.5498352,0,2.8948364,0.2527924,4.0377197,0.7550507c1.1414795,0.5029221,2.0918274,1.2257767,2.8503113,2.1678848
			c0.7578125,0.9421158,1.3292236,2.1322632,1.7129211,3.5697708c0.3836975,1.4374619,0.5748596,3.1222916,0.5748596,5.0544891
			V99.449028H305.3287048z"/>
	</g>
	<g>
		<g>
			<polygon class="st1" points="97.2486572,0 0,35.4926643 97.2582321,18.3126526 97.2582321,0 			"/>
			<path class="st2" d="M66.3988113,50.2517319l-8.3570709,16.0563583l-8.335804-16.0563583H33.3919678l17.1882477,29.763916
				V99.449234h14.7120209V80.0156479l17.2108765-29.763916H66.3988113z M0.8483114,50.2517319V99.449234h39.3570175V88.1322174
				H15.6041937v-8.1165695h17.7877731v-10.328949H15.6041937v-8.1199913h19.6781693l-6.5290203-11.3149757H0.8483114z"/>
		</g>
	</g>
</g>
</svg>
